<svg width="17" height="16" viewBox="0 0 17 16" xmlns="http://www.w3.org/2000/svg"><title>Icon</title><g fill="#000" fill-rule="evenodd"><path d="M8.13 2.217h6.652v.739H8.13zM0 2.217h3.77v.739H0zM0 12.565h5.765v.739H0zM9.609 12.565h4.804v.739H9.609zM0 7.391h12.343v.739H0z"/><path d="M6.283 5.174a2.576 2.576 0 0 1-2.587-2.587A2.576 2.576 0 0 1 6.283 0 2.576 2.576 0 0 1 8.87 2.587a2.576 2.576 0 0 1-2.587 2.587zm0-4.435c-1.04 0-1.848.809-1.848 1.848 0 1.04.808 1.848 1.848 1.848 1.039 0 1.847-.809 1.847-1.848 0-1.04-.808-1.848-1.847-1.848zM14.413 10.348a2.576 2.576 0 0 1-2.587-2.587 2.576 2.576 0 0 1 2.587-2.587A2.576 2.576 0 0 1 17 7.76c0 1.437-1.222 2.587-2.587 2.587zm0-4.435c-1.04 0-1.848.808-1.848 1.848s.809 1.848 1.848 1.848c1.04 0 1.848-.809 1.848-1.848 0-1.04-.924-1.848-1.848-1.848zM7.76 15.522a2.576 2.576 0 0 1-2.586-2.587 2.576 2.576 0 0 1 2.587-2.587 2.576 2.576 0 0 1 2.587 2.587 2.576 2.576 0 0 1-2.587 2.587zm0-4.435c-1.039 0-1.847.808-1.847 1.848s.808 1.848 1.848 1.848 1.848-.809 1.848-1.848c0-1.04-.809-1.848-1.848-1.848z"/></g></svg>