<?xml version="1.0" standalone="no"?>
<!DOCTYPE svg PUBLIC "-//W3C//DTD SVG 20010904//EN"
 "http://www.w3.org/TR/2001/REC-SVG-20010904/DTD/svg10.dtd">
<svg version="1.0" xmlns="http://www.w3.org/2000/svg"
 width="16.000000pt" height="16.000000pt" viewBox="0 0 16.000000 16.000000"
 preserveAspectRatio="xMidYMid meet">
<metadata>
Created by potrace 1.11, written by Peter Selinger 2001-2013
</metadata>
<g transform="translate(0.000000,16.000000) scale(0.005714,-0.005714)"
fill="#000000" stroke="none">
<path d="M1350 2513 c-112 -286 -208 -570 -215 -640 -9 -80 13 -168 80 -313
146 -321 158 -465 69 -840 -48 -199 -61 -312 -46 -390 20 -111 79 -157 187
-148 167 14 212 171 132 463 -90 330 -106 529 -56 692 11 34 46 120 79 192
131 284 126 337 -79 849 -45 111 -81 206 -81 211 0 5 -6 14 -14 20 -12 10 -21
-7 -56 -96z"/>
</g>
</svg>
