<svg width="104" height="104" viewBox="0 0 104 104" xmlns="http://www.w3.org/2000/svg"><title>Artboard 1</title><path d="M23.759 71.694c-.321.053-.639.163-.945.254-1.25.372-2.302.873-3.225 1.612-.37.297-1.067.803-.967 1.452.05.33.523.499.921.529 1.11.084 1.838-.305 2.695-.622.649-.24 1.24-.553 1.82-.853.6-.31 1.183-.621 1.728-.944.576-.341 1.134-.687 1.543-1.151-.798-.555-2.475-.458-3.57-.277zm35.104-8.292c.017.278.083.712.276.737.209.027.422-.338.53-.506a8.476 8.476 0 0 0 .99-2.166c-.782-.062-1.14-.548-1.382-1.151-.27.673-.476 2.096-.414 3.086zM38.938 60.2c-.251.187-.473.402-.737.576-.41.513-.89.982-1.313 1.543-.4.531-.782 1.119-1.129 1.75-.524.958-.799 2.015-.99 3.318-.062.42-.18.873-.161 1.29.06 1.28 1.285.117 1.589-.23 1.004-1.15 1.752-2.425 2.442-3.801-.451.03-.727.42-1.244.253-.367-.118-.427-.663-.346-1.152.233-1.395 1.434-2.6 2.004-3.547-.032-.005-.039-.038-.069-.046 0 .03-.04.021-.046.046zm.46.899c-.31.532-.652 1.082-.69 1.658-.032.476.32.705.714.484.177-.1.312-.487.414-.738.345-.845.69-1.775.668-2.74-.014-.002-.027-.004-.023-.024-.001-.013-.003-.027-.023-.023-.423.345-.711.786-1.06 1.383zm9.422-1.452c-.515.587-.756 1.428-1.06 2.304a15.23 15.23 0 0 0-.553 1.958c-.046.223-.136.507 0 .714.378-.174.714-.548 1.06-.853.139-.122.316-.275.53-.46.192-.167.447-.307.483-.507.02-.103-.018-.235-.023-.346-.038-1.015-.051-2.364 0-3.224-.122.16-.298.256-.437.414zm7.255-1.566c.935.143 1.456.638 2.143.968.21-.25.365-.556.483-.899-.673-.318-1.873-.282-2.626-.069zm5.276-.415c-.142.212-.23.493-.254.853-.022.333-.046.764.161.92.212-.417.249-1.132.185-1.75-.04.002-.072-.004-.092-.023zm-5.068-8.868c-.979.686-1.78 1.637-2.488 2.626a15.115 15.115 0 0 0-2.165 4.423 8.37 8.37 0 0 0 3.34-2.695c.615-.848 1.158-1.906 1.382-3.133.072-.396.214-.871.046-1.29h-.046a.117.117 0 0 0-.07.07zM39.238 23h.184c.244.17.188.477.207.737.062.813.188 1.664.276 2.51.124 1.177.078 2.476-.046 3.594-.243 2.198-.706 4.359-1.45 5.99-.75 1.642-1.935 3.059-3.226 4.237-.955.873-2.096 1.626-3.293 2.304-.318.18-.871.593-1.29.276.092-.398.494-.439.76-.576a11.09 11.09 0 0 0 1.842-1.22c1.647-1.356 2.885-3.237 3.732-5.413.55-1.416.993-3.14 1.106-4.999.11-1.814.205-3.943-.3-5.62-.348.161-.602.477-.875.737-.813.773-1.696 1.529-2.441 2.395-1.945 2.26-3.533 5.098-4.239 8.615-.357 1.782-.307 3.941.046 5.874.652 3.569 2.304 6.244 3.593 9.283.626 1.476 1.12 3.129 1.544 4.883.4 1.655.549 3.918.184 5.827.268-.178.455-.457.668-.713a10.093 10.093 0 0 1 2.165-1.959c.52-.344 1.142-.658 1.75-1.013.267-.155.531-.334.853-.53.231-.14.67-.443.99-.368.22.05.358.417.37.714.023.654-.242 1.243-.439 1.773-.21.565-.413 1.093-.552 1.659.219-.042.364-.244.53-.392 1.008-.898 1.746-2.002 2.833-2.879.194-.156.452-.335.621-.138.146.168-.115.533-.253.737-.183.269-.347.469-.46.645-.745 1.154-1.326 2.314-1.406 4.123-.018.412-.013.887.208.968.374.135.886-.165 1.151-.3.403-.204.805-.423.945-.806.207-.568.261-1.158.46-1.682.338-.886.974-1.944 1.682-2.602.287-.267.961-.799 1.428-.691.161.036.127.044.207.23.349-3.03 1.686-5.28 3.156-7.348 1.067-1.501 2.368-2.826 3.824-4.054.217-.184.452-.38.737-.576.28-.19.646-.437.967-.415.4.396.268 1.18.185 1.797-.24 1.763-1.184 3.055-2.097 4.192-.972 1.212-1.985 2.169-3.293 2.995-.445.28-1.052.515-1.36.921-.355.47-.42 1.384-.506 2.096-.313 2.558.225 4.856 1.543 6.012.467.41 1.044.742 1.82.783a3.236 3.236 0 0 0 2.004-.576c.53-.372.826-.875.921-1.658.046-.38.043-.75.092-1.198.04-.37.09-.798-.046-1.152-.34-.886-1.37-1.247-2.326-1.45-1.16-.248-2.276-.079-3.133.368-.144.075-.385.365-.622.322-.062-.01-.215-.15-.23-.23-.054-.28.402-.662.668-.875.846-.679 1.842-1.326 2.856-1.751 1.092-.457 2.22-.82 3.778-.783.446.01 1.12.121 1.52.023.277-.068.591-.4.806-.645.466-.528.847-1.003 1.497-1.382.158-.091.782-.452 1.129-.276.134.068.208.26.23.46.1.89-.05 1.721-.207 2.419-.161.714-.441 1.324-.53 2.073.288-.078.493-.319.691-.507 1.008-.957 1.32-2.664 2.304-3.685.193-.2.398-.38.645-.553.217-.154.468-.395.806-.322.096.368-.176.695-.323.99a71.48 71.48 0 0 0-1.336 2.856c-.279.632-.57 1.3-.806 1.981-.238.689-.51 1.432-.46 2.234.481-.18.819-.582 1.151-.921.671-.684 1.156-1.57 1.659-2.465.447-.794.76-1.643 1.889-1.727.255.347.007.737-.139 1.036-.307.634-.541 1.293-.806 1.981-.126.329-.306.72-.138 1.106.377.13.757-.17 1.06-.391.347-.255.775-.573.852-.991.035-.194-.023-.41-.023-.622-.002-1.371.232-2.708.483-3.893.157-.735.286-1.387.507-2.004.221-.615.51-1.16.737-1.773-.772.089-1.225.398-1.82.737-.241.137-.481.298-.782.483-.166.102-.736.463-.899.184-.19-.326.588-.852.737-.967a11.042 11.042 0 0 1 3.455-1.797c.626-1.093 1.15-2.34 2.235-3.017.16-.1.353-.224.53-.345.159-.11.364-.306.598-.185.002.652-.496 1.029-.806 1.451-.324.443-.669.86-.806 1.475.526-.003 1.06-.174 1.612-.277 1.549-.288 3.562-.476 5.275-.161-.112.259-.396.435-.645.668-.216.201-.48.564-.76.622-.216.044-.512-.023-.783-.023-1.303 0-2.544.085-3.755.184-.58.047-1.12.085-1.543.276-.461.473-.866 1.557-1.106 2.304a17.05 17.05 0 0 0-.575 2.557c-.182 1.223-.223 3.055.092 4.284.106.415.227.979.552 1.014.286.03.643-.36.853-.53.768-.626 1.263-1.522 1.681-2.441.422-.928.675-1.999 1.405-2.719.203-.199.62-.53.876-.392.418.229-.156 1.272-.254 1.475-.48.999-.88 1.74-1.29 2.718-.193.461-.433.976-.391 1.52.609.247.737-.426.944-.899.335-.764.578-1.437 1.06-2.072.217-.287.482-.677.898-.669.21.005.378.146.415.277.082.293-.267.71-.392.945-.185.347-.334.583-.368 1.013.394-.047.67-.405.99-.668.617-.508 1.278-.966 2.165-1.244.536-.168 1.643-.526 1.935.023.258.482-.146 1.295-.368 1.728-.267.519-.568 1.003-.784 1.497-.207.476-.43 1.094-.599 1.681-.185.649-.44 1.82.07 2.28.367.334 1.054.386 1.658.37 1.262-.036 1.935-.795 2.672-1.383.363-.29.796-.65 1.382-.552v.138c-.414.536-1.008.934-1.59 1.359-1.093.798-2.174 1.754-3.961 1.911-1.132.1-2.1-.344-2.189-1.497-.104-1.36.418-2.592.807-3.547.216-.53.459-.984.714-1.451.252-.46.547-.944.576-1.59-.341-.208-.728-.02-1.037.093-1.528.555-2.413 1.864-3.409 3.04-.18.213-.39.436-.645.645-.173.143-.71.474-.898.253-.121-.141.106-.386.046-.621-.485.054-1.203.767-1.705.552-.357-.153-.055-.87-.046-1.243-.113-.03-.17.109-.253.184-.48.436-1.726 1.479-2.626 1.128-.508-.197-.484-.907-.622-1.542-.324.04-.557.327-.806.552a7.997 7.997 0 0 1-.76.599c-.52.365-1.226.804-1.912.783-.436-.013-.672-.295-.714-.76-.295.061-.456.355-.668.553-.435.405-.887.736-1.543.99-.554.215-1.22.364-1.267-.414-.04-.673.176-1.382.368-1.981.196-.61.484-1.156.668-1.682-.219.052-.365.35-.553.599-.186.249-.444.47-.575.691-.3.501-.427 1.114-.737 1.635-.603 1.014-1.18 1.855-2.073 2.65-.195.173-.399.329-.646.53-.208.169-.486.46-.737.437-.462-.04-.504-.957-.737-1.267-.655.522-1.1 1.229-1.82 1.75-.646.47-1.592.991-2.671.83-.957-.143-1.567-.855-2.096-1.475-.566-.662-.99-1.39-1.198-2.349-1 .647-1.763 1.506-2.764 2.189-.317.215-.718.484-1.198.39-.201-.151-.227-.479-.207-.851-.81.334-1.717 1.562-2.995 1.243a1.187 1.187 0 0 1-.76-.575c-.61-1.167.433-2.893.645-3.778-.341.033-.562.334-.806.553-.255.228-.554.417-.807.645-1.264 2.088-2.777 4.453-4.699 6.15-.593.524-1.338 1.295-2.372 1.22-1.13-.08-.854-1.43-.668-2.394-.292.184-.448.504-.668.76-.645.749-1.433 1.402-2.142 2.119 3.193 2.355 8.486 3.26 13.843 2.602 1.202-.147 2.368-.431 3.478-.737 3.259-.895 6.112-2.356 9.099-3.523 1.987-.778 4.145-1.56 6.565-1.867 2.5-.316 5.44-.29 7.993 0 4.359.497 8.087 1.777 11.356 3.387.458.226.94.44 1.266.829-.242.088-.472.15-.714.23-.214.072-.49.239-.69.23-.173-.007-.502-.286-.692-.391-.692-.387-1.47-.703-2.188-1.014a31.451 31.451 0 0 0-3.133-1.152c-2.16-.666-4.74-1.052-7.232-1.335-4.061-.463-8.291.03-11.264 1.22-1.007.403-1.927.916-2.88 1.406-.95.489-1.967.892-2.948 1.335-.993.45-1.994.889-3.017 1.267-.525.195-1.074.34-1.613.53-.524.186-1.049.392-1.589.553-1.118.333-2.331.516-3.593.69-2.615.363-5.421.28-7.786-.276-1.98-.464-3.764-1.222-5.275-2.234-.154-.103-.477-.402-.645-.415-.362-.028-.894.543-1.22.76-1.191.791-2.33 1.611-3.617 2.258-1.44.724-4.92 1.755-5.551-.53v-.368c.2-1.14.923-1.89 1.612-2.488.777-.673 1.506-1.177 2.511-1.59 1.605-.656 4.343-.997 6.058-.253.248.108.456.251.737.3.52.09 1.075-.587 1.428-.921a15.14 15.14 0 0 0 2.88-3.686c.509-.92.928-2.072 1.128-3.248.22-1.292.09-2.908-.092-4.1-.384-2.518-1.175-4.65-2.119-6.634-.938-1.97-2.013-3.867-2.833-5.92-.423-1.06-.775-2.167-.922-3.432-.157-1.358-.021-2.764.162-4.077a21.654 21.654 0 0 1 2.073-6.68c1.474-2.933 3.47-5.259 5.897-7.232.38-.31.822-.586 1.29-.899.437-.293.896-.7 1.428-.806zm35.541 31.971c-.216-.297.1-.54.3-.713.421-.367.977-.654 1.52-.876.31-.127.581-.182.921-.253.217-.046.788-.289.853.046.043.224-.3.57-.461.714-.243.218-.666.478-.945.553-.242.065-.598.066-.806.115-.466.11-.898.397-1.382.414z" fill="#FFF" fill-rule="evenodd"/></svg>