<svg width="104" height="104" viewBox="0 0 104 104" xmlns="http://www.w3.org/2000/svg"><title>Artboard 1</title><path d="M41.057 36.936c.42-.337.771-.955 1.543-.737.76.214.669 1.116.669 2.188 0 .598-.116 1.263.23 1.428.134.064.328.001.415.092-.079.128-.29.07-.438.07-.433 0-1.052.036-1.428-.047.03-.125.19-.06.276-.092.358-.132.276-.642.276-1.29 0-.76.108-1.546-.276-1.843-.57-.142-1.003.176-1.267.484.04.551-.04 1.564-.023 2.142.012.392.203.526.553.576-.078.128-.289.07-.437.07-.433 0-1.052.036-1.429-.047.114-.124.415-.061.53-.184.18-.307.115-.73.115-1.152V36.06c0-.403.079-.832-.161-1.082-.146-.03-.302.05-.392 0 .02-.17.351-.208.53-.277.24-.091.469-.19.668-.276.108.739.012 1.912.046 2.51zm6.611-2.396c.686-.163.665.902.046.83-.428-.05-.495-.723-.046-.83zm7.44 0c.364-.078.624.24.484.576-.194.462-.961.242-.783-.322.025-.08.097-.21.3-.254zm-2.234.599c.124.092.069.314.069.507v.576c.224.052.544.008.806.023v.299h-.783c0 .515-.074 1.73-.023 2.442.025.357.134.662.553.622.243-.024.292-.207.506-.3.053.124-.123.28-.23.392-.214.224-.467.395-.967.345-.928-.28-.382-2.395-.53-3.501-.182-.026-.47.055-.576-.046.043-.207.28-.23.415-.322.336-.23.555-.54.69-.968a.107.107 0 0 0 .024-.069h.046zm-4.1 4.768c-.047.125-.302.07-.46.07-.458 0-1.098.036-1.498-.047.086-.135.233-.048.391-.115.385-.162.254-1.019.254-1.75 0-.518.072-1.251-.162-1.36-.144-.066-.333.088-.414-.023.1-.138.36-.203.552-.276.233-.088.467-.159.669-.254.018.005.023.024.046.024-.04.397-.023 1.04-.023 1.704 0 .7-.137 1.752.23 1.935.142.07.294-.008.415.092zm7.44 0c-.047.125-.302.07-.461.07-.457 0-1.097.036-1.497-.047.08-.132.252-.056.391-.115.152-.064.23-.197.254-.438.055-.537.04-1.626 0-2.188-.013-.181-.078-.42-.138-.46-.14-.096-.347.059-.438-.047.085-.13.324-.197.53-.276.239-.092.474-.15.69-.254.041.332.024 1.084.024 1.774 0 .698-.133 1.667.184 1.866.148.093.32.015.46.115zm5.136-3.731v.737c.457-.221.572-.835 1.382-.737 1.313.157.666 2.16.853 3.316.044.274.318.377.645.392-.036.16-.278.092-.415.092-.445 0-1.073.037-1.451-.046-.039-.146.201-.014.23-.092.423-.004.3-.808.3-1.36 0-.693.148-1.663-.323-1.796-.453-.128-.945.207-1.22.53.135.604-.257 2.35.184 2.603.117.067.252-.006.368.092-.078.128-.289.07-.437.07-.433 0-1.052.036-1.429-.047.064-.124.267-.06.392-.115.358-.156.253-.807.253-1.474 0-.695.093-1.321-.161-1.636-.135-.056-.29.042-.391 0 .025-.187.31-.2.506-.276.232-.089.474-.188.668-.277.027-.003.041.006.046.024zm-16.032 0h.047v.599c.238-.25.564-.65.99-.6.189.023.512.218.415.577a.363.363 0 0 1-.277.23c-.34.05-.31-.264-.598-.277-.297-.013-.374.283-.53.461.044.565-.058 1.605 0 2.188.04.407.256.49.645.553-.047.124-.302.07-.461.07-.457 0-1.097.036-1.497-.047.076-.13.25-.054.391-.115.375-.162.253-.836.253-1.566 0-.657.087-1.256-.16-1.544-.159-.029-.308.052-.415 0 .1-.179.358-.201.552-.276.216-.083.424-.174.622-.253h.023zm5.943.115c-.047.378.088.817-.023 1.105-.17-.096-.104-.227-.16-.368-.128-.318-.452-.601-.853-.599-.36.002-.752.245-.599.737.082.264.479.438.783.599.494.26 1.146.61 1.106 1.382-.033.622-.645.967-1.36.898-.228-.022-.445-.17-.667-.161-.187.008-.138.099-.346.115-.025-.364-.056-1.007 0-1.336.16.033.128.246.161.346.139.415.617.992 1.29.737.308-.117.423-.545.185-.875-.398-.552-1.722-.645-1.705-1.659.013-.757.776-1.196 1.544-.99.188.05.394.227.644.069zm7.233 1.566c-.412.187-.914.285-1.175.622-.216.28-.232.831.07 1.037.311.212 1.074-.033 1.174-.346.053-.165 0-.457 0-.668 0-.243.036-.474-.046-.645h-.023zm.83 1.705c.277.047.334-.126.53-.162-.015.534-1.307 1.045-1.29.07-.389.172-.72.705-1.429.575-.448-.082-.684-.509-.622-1.036.11-.944 1.32-1.105 2.05-1.428.09-.708-.139-1.135-.645-1.152-.158-.005-.447.053-.552.207-.141.207.018.584-.116.737-.182.209-.502.057-.552-.046-.047-.092-.041-.36 0-.483.28-.855 2.379-.955 2.533.069.06.4 0 .92 0 1.382 0 .44-.07.892.093 1.267z" fill="#FFF" fill-rule="evenodd"/></svg>